<svg width="1024" height="1024" viewBox="0 0 1024 1024" fill="none" xmlns="http://www.w3.org/2000/svg">
<ellipse cx="512" cy="511.5" rx="410" ry="410.5" fill="#E4DAEF" style="fill:#E4DAEF;fill:color(display-p3 0.8941 0.8549 0.9373);fill-opacity:1;"/>
<circle cx="106.455" cy="514.895" r="22.4546" transform="rotate(-90 106.455 514.895)" fill="#A088C0" style="fill:#A088C0;fill:color(display-p3 0.6275 0.5333 0.7529);fill-opacity:1;"/>
<circle cx="116.549" cy="424.025" r="22.4546" transform="rotate(-77.1429 116.549 424.025)" fill="#A088C0" style="fill:#A088C0;fill:color(display-p3 0.6275 0.5333 0.7529);fill-opacity:1;"/>
<circle cx="146.548" cy="337.712" r="22.4546" transform="rotate(-64.2857 146.548 337.712)" fill="#A088C0" style="fill:#A088C0;fill:color(display-p3 0.6275 0.5333 0.7529);fill-opacity:1;"/>
<circle cx="194.873" cy="260.284" r="22.4546" transform="rotate(-51.4286 194.873 260.284)" fill="#A088C0" style="fill:#A088C0;fill:color(display-p3 0.6275 0.5333 0.7529);fill-opacity:1;"/>
<circle cx="256.803" cy="195.516" r="22.4546" transform="rotate(-38.5714 256.803 195.516)" fill="#A088C0" style="fill:#A088C0;fill:color(display-p3 0.6275 0.5333 0.7529);fill-opacity:1;"/>
<circle cx="258.993" cy="834.274" r="22.4546" transform="rotate(-141.429 258.993 834.274)" fill="#A088C0" style="fill:#A088C0;fill:color(display-p3 0.6275 0.5333 0.7529);fill-opacity:1;"/>
<circle cx="194.873" cy="769.506" r="22.4546" transform="rotate(-128.571 194.873 769.506)" fill="#A088C0" style="fill:#A088C0;fill:color(display-p3 0.6275 0.5333 0.7529);fill-opacity:1;"/>
<circle cx="146.548" cy="692.078" r="22.4546" transform="rotate(-115.714 146.548 692.078)" fill="#A088C0" style="fill:#A088C0;fill:color(display-p3 0.6275 0.5333 0.7529);fill-opacity:1;"/>
<circle cx="116.549" cy="605.765" r="22.4546" transform="rotate(-102.857 116.549 605.765)" fill="#A088C0" style="fill:#A088C0;fill:color(display-p3 0.6275 0.5333 0.7529);fill-opacity:1;"/>
<circle cx="687.892" cy="882.93" r="22.4546" transform="rotate(154.286 687.892 882.93)" fill="#70C090" style="fill:#70C090;fill:color(display-p3 0.4392 0.7529 0.5647);fill-opacity:1;"/>
<circle cx="602.259" cy="913.112" r="22.4546" transform="rotate(167.143 602.259 913.112)" fill="#70C090" style="fill:#70C090;fill:color(display-p3 0.4392 0.7529 0.5647);fill-opacity:1;"/>
<circle cx="421.741" cy="912.921" r="22.4546" transform="rotate(-167.143 421.741 912.921)" fill="#70C090" style="fill:#70C090;fill:color(display-p3 0.4392 0.7529 0.5647);fill-opacity:1;"/>
<circle cx="336.108" cy="882.717" r="22.4546" transform="rotate(-154.286 336.108 882.717)" fill="#70C090" style="fill:#70C090;fill:color(display-p3 0.4392 0.7529 0.5647);fill-opacity:1;"/>
<circle cx="765.007" cy="195.516" r="22.4546" transform="rotate(38.5714 765.007 195.516)" fill="#D0A070" style="fill:#D0A070;fill:color(display-p3 0.8157 0.6275 0.4392);fill-opacity:1;"/>
<circle cx="829.127" cy="260.284" r="22.4546" transform="rotate(51.4286 829.127 260.284)" fill="#D0A070" style="fill:#D0A070;fill:color(display-p3 0.8157 0.6275 0.4392);fill-opacity:1;"/>
<circle cx="877.452" cy="337.712" r="22.4546" transform="rotate(64.2857 877.452 337.712)" fill="#D0A070" style="fill:#D0A070;fill:color(display-p3 0.8157 0.6275 0.4392);fill-opacity:1;"/>
<circle cx="907.451" cy="424.025" r="22.4546" transform="rotate(77.1429 907.451 424.025)" fill="#D0A070" style="fill:#D0A070;fill:color(display-p3 0.8157 0.6275 0.4392);fill-opacity:1;"/>
<circle cx="917.545" cy="514.895" r="22.4546" transform="rotate(90 917.545 514.895)" fill="#D0A070" style="fill:#D0A070;fill:color(display-p3 0.8157 0.6275 0.4392);fill-opacity:1;"/>
<circle cx="907.451" cy="605.764" r="22.4546" transform="rotate(102.857 907.451 605.764)" fill="#D0A070" style="fill:#D0A070;fill:color(display-p3 0.8157 0.6275 0.4392);fill-opacity:1;"/>
<circle cx="877.452" cy="692.077" r="22.4546" transform="rotate(115.714 877.452 692.077)" fill="#D0A070" style="fill:#D0A070;fill:color(display-p3 0.8157 0.6275 0.4392);fill-opacity:1;"/>
<circle cx="829.127" cy="769.506" r="22.4546" transform="rotate(128.571 829.127 769.506)" fill="#D0A070" style="fill:#D0A070;fill:color(display-p3 0.8157 0.6275 0.4392);fill-opacity:1;"/>
<circle cx="767.197" cy="834.274" r="22.4546" transform="rotate(141.429 767.197 834.274)" fill="#D0A070" style="fill:#D0A070;fill:color(display-p3 0.8157 0.6275 0.4392);fill-opacity:1;"/>
<circle cx="336.109" cy="146.86" r="22.4546" transform="rotate(-25.7143 336.109 146.86)" fill="#E07070" style="fill:#E07070;fill:color(display-p3 0.8784 0.4392 0.4392);fill-opacity:1;"/>
<circle cx="421.741" cy="116.769" r="22.4546" transform="rotate(-12.8571 421.741 116.769)" fill="#E07070" style="fill:#E07070;fill:color(display-p3 0.8784 0.4392 0.4392);fill-opacity:1;"/>
<circle cx="512" cy="106.455" r="22.4546" fill="#E07070" style="fill:#E07070;fill:color(display-p3 0.8784 0.4392 0.4392);fill-opacity:1;"/>
<circle cx="602.259" cy="116.769" r="22.4546" transform="rotate(12.8571 602.259 116.769)" fill="#E07070" style="fill:#E07070;fill:color(display-p3 0.8784 0.4392 0.4392);fill-opacity:1;"/>
<circle cx="687.891" cy="147.072" r="22.4546" transform="rotate(25.7143 687.891 147.072)" fill="#E07070" style="fill:#E07070;fill:color(display-p3 0.8784 0.4392 0.4392);fill-opacity:1;"/>
</svg>
