<svg width="1024" height="1024" viewBox="0 0 1024 1024" fill="none" xmlns="http://www.w3.org/2000/svg">
<circle cx="512.108" cy="922.108" r="36" transform="rotate(-167.143 512.108 922.108)" fill="#70C090" style="fill:#70C090;fill:color(display-p3 0.4392 0.7529 0.5647);fill-opacity:1;"/>
<circle cx="512" cy="512" r="256" fill="#F5F0FF" style="fill:#F5F0FF;fill:color(display-p3 0.9608 0.9412 1.0000);fill-opacity:1;"/>
<path d="M358.58 565.28C358.58 564.8 359 564.5 359.84 564.38L365.51 563.39C366.83 563.15 367.76 562.82 368.3 562.4C368.9 561.98 369.2 561.35 369.2 560.51V445.58C369.2 444.74 368.9 444.11 368.3 443.69C367.7 443.21 366.8 442.85 365.6 442.61L359.57 441.53C358.91 441.47 358.58 441.17 358.58 440.63C358.58 440.39 358.67 440.24 358.85 440.18C359.03 440.06 359.27 440 359.57 440H410.78C421.58 440 431.51 441.53 440.57 444.59C449.63 447.65 457.49 452.21 464.15 458.27C470.81 464.33 475.97 471.83 479.63 480.77C483.29 489.71 485.12 500.06 485.12 511.82C485.12 523.34 482.36 533.15 476.84 541.25C471.38 549.29 463.58 555.44 453.44 559.7C443.3 563.9 431.24 566 417.26 566H359.57C359.21 566 358.94 565.94 358.76 565.82C358.64 565.7 358.58 565.52 358.58 565.28ZM417.26 563.84C422.54 563.84 427.25 562.07 431.39 558.53C435.53 554.93 438.8 549.08 441.2 540.98C443.6 532.82 444.8 521.9 444.8 508.22C444.8 497.12 443.96 487.43 442.28 479.15C440.66 470.87 438.32 464 435.26 458.54C432.2 453.08 428.6 449 424.46 446.3C420.32 443.54 415.76 442.16 410.78 442.16H407.72V560.42C407.72 561.5 408.05 562.34 408.71 562.94C409.43 563.54 410.42 563.84 411.68 563.84H417.26ZM536.935 483.56C545.515 483.56 553.075 485.36 559.615 488.96C566.215 492.56 571.375 497.57 575.095 503.99C578.815 510.35 580.675 517.7 580.675 526.04C580.675 534.2 578.725 541.43 574.825 547.73C570.985 553.97 565.675 558.89 558.895 562.49C552.115 566.03 544.315 567.8 535.495 567.8C526.915 567.8 519.325 566.03 512.725 562.49C506.185 558.95 501.055 554.06 497.335 547.82C493.615 541.52 491.755 534.26 491.755 526.04C491.755 517.88 493.705 510.62 497.605 504.26C501.565 497.84 506.935 492.8 513.715 489.14C520.555 485.42 528.295 483.56 536.935 483.56ZM542.065 566C544.225 565.7 545.815 564.02 546.835 560.96C547.915 557.9 548.425 553.34 548.365 547.28C548.305 541.22 547.615 533.6 546.295 524.42C544.975 515.24 543.505 507.74 541.885 501.92C540.325 496.04 538.615 491.78 536.755 489.14C534.895 486.44 532.855 485.27 530.635 485.63C528.535 485.99 526.945 487.7 525.865 490.76C524.845 493.82 524.395 498.35 524.515 504.35C524.635 510.35 525.325 517.94 526.585 527.12C527.905 536.3 529.345 543.83 530.905 549.71C532.465 555.53 534.175 559.79 536.035 562.49C537.895 565.13 539.905 566.3 542.065 566ZM666.969 521.36C666.969 521.96 666.759 522.47 666.339 522.89C665.979 523.31 665.349 523.52 664.449 523.52H608.109V521.36H633.129C634.209 521.36 634.749 520.7 634.749 519.38C634.749 507.32 633.639 498.68 631.419 493.46C629.259 488.18 627.009 485.54 624.669 485.54C623.049 485.54 621.549 486.41 620.169 488.15C618.789 489.83 617.649 492.77 616.749 496.97C615.909 501.17 615.489 506.96 615.489 514.34C615.489 526.76 617.979 535.82 622.959 541.52C627.939 547.16 634.569 549.98 642.849 549.98C649.509 549.98 654.909 548.33 659.049 545.03C663.249 541.67 665.349 537.2 665.349 531.62C665.349 531.32 665.409 531.14 665.529 531.08C665.709 530.96 665.829 530.9 665.889 530.9C666.069 530.9 666.219 530.96 666.339 531.08C666.519 531.2 666.609 531.44 666.609 531.8C666.609 538.64 664.869 544.79 661.389 550.25C657.969 555.65 653.289 559.94 647.349 563.12C641.409 566.24 634.689 567.8 627.189 567.8C619.029 567.8 611.799 566.06 605.499 562.58C599.199 559.1 594.249 554.27 590.649 548.09C587.049 541.91 585.249 534.8 585.249 526.76C585.249 517.76 587.019 510.05 590.559 503.63C594.099 497.15 599.109 492.2 605.589 488.78C612.129 485.3 619.809 483.56 628.629 483.56C636.489 483.56 643.269 485.21 648.969 488.51C654.729 491.81 659.169 496.31 662.289 502.01C665.409 507.71 666.969 514.16 666.969 521.36Z" fill="#2A2145" style="fill:#2A2145;fill:color(display-p3 0.1647 0.1294 0.2706);fill-opacity:1;"/>
</svg>
