<svg width="1024" height="1024" viewBox="0 0 1024 1024" fill="none" xmlns="http://www.w3.org/2000/svg">
<ellipse cx="512" cy="511.5" rx="410" ry="410.5" fill="#E6EEFA" style="fill:#E6EEFA;fill:color(display-p3 0.9020 0.9333 0.9804);fill-opacity:1;"/>
<circle cx="106.455" cy="514.895" r="22.4546" transform="rotate(-90 106.455 514.895)" fill="#5F4F96" style="fill:#5F4F96;fill:color(display-p3 0.3725 0.3098 0.5882);fill-opacity:1;"/>
<circle cx="116.549" cy="424.025" r="22.4546" transform="rotate(-77.1429 116.549 424.025)" fill="#5F4F96" style="fill:#5F4F96;fill:color(display-p3 0.3725 0.3098 0.5882);fill-opacity:1;"/>
<circle cx="146.548" cy="337.712" r="22.4546" transform="rotate(-64.2857 146.548 337.712)" fill="#5F4F96" style="fill:#5F4F96;fill:color(display-p3 0.3725 0.3098 0.5882);fill-opacity:1;"/>
<circle cx="194.873" cy="260.284" r="22.4546" transform="rotate(-51.4286 194.873 260.284)" fill="#5F4F96" style="fill:#5F4F96;fill:color(display-p3 0.3725 0.3098 0.5882);fill-opacity:1;"/>
<circle cx="256.803" cy="195.516" r="22.4546" transform="rotate(-38.5714 256.803 195.516)" fill="#5F4F96" style="fill:#5F4F96;fill:color(display-p3 0.3725 0.3098 0.5882);fill-opacity:1;"/>
<circle cx="258.993" cy="834.274" r="22.4546" transform="rotate(-141.429 258.993 834.274)" fill="#5F4F96" style="fill:#5F4F96;fill:color(display-p3 0.3725 0.3098 0.5882);fill-opacity:1;"/>
<circle cx="194.873" cy="769.506" r="22.4546" transform="rotate(-128.571 194.873 769.506)" fill="#5F4F96" style="fill:#5F4F96;fill:color(display-p3 0.3725 0.3098 0.5882);fill-opacity:1;"/>
<circle cx="146.548" cy="692.078" r="22.4546" transform="rotate(-115.714 146.548 692.078)" fill="#5F4F96" style="fill:#5F4F96;fill:color(display-p3 0.3725 0.3098 0.5882);fill-opacity:1;"/>
<circle cx="116.549" cy="605.765" r="22.4546" transform="rotate(-102.857 116.549 605.765)" fill="#5F4F96" style="fill:#5F4F96;fill:color(display-p3 0.3725 0.3098 0.5882);fill-opacity:1;"/>
<circle cx="687.892" cy="882.93" r="22.4546" transform="rotate(154.286 687.892 882.93)" fill="#2A6447" style="fill:#2A6447;fill:color(display-p3 0.1647 0.3922 0.2784);fill-opacity:1;"/>
<circle cx="602.259" cy="913.112" r="22.4546" transform="rotate(167.143 602.259 913.112)" fill="#2A6447" style="fill:#2A6447;fill:color(display-p3 0.1647 0.3922 0.2784);fill-opacity:1;"/>
<circle cx="421.741" cy="912.921" r="22.4546" transform="rotate(-167.143 421.741 912.921)" fill="#2A6447" style="fill:#2A6447;fill:color(display-p3 0.1647 0.3922 0.2784);fill-opacity:1;"/>
<circle cx="336.108" cy="882.717" r="22.4546" transform="rotate(-154.286 336.108 882.717)" fill="#2A6447" style="fill:#2A6447;fill:color(display-p3 0.1647 0.3922 0.2784);fill-opacity:1;"/>
<circle cx="765.007" cy="195.516" r="22.4546" transform="rotate(38.5714 765.007 195.516)" fill="#765325" style="fill:#765325;fill:color(display-p3 0.4627 0.3255 0.1451);fill-opacity:1;"/>
<circle cx="829.127" cy="260.284" r="22.4546" transform="rotate(51.4286 829.127 260.284)" fill="#765325" style="fill:#765325;fill:color(display-p3 0.4627 0.3255 0.1451);fill-opacity:1;"/>
<circle cx="877.452" cy="337.712" r="22.4546" transform="rotate(64.2857 877.452 337.712)" fill="#765325" style="fill:#765325;fill:color(display-p3 0.4627 0.3255 0.1451);fill-opacity:1;"/>
<circle cx="907.451" cy="424.025" r="22.4546" transform="rotate(77.1429 907.451 424.025)" fill="#765325" style="fill:#765325;fill:color(display-p3 0.4627 0.3255 0.1451);fill-opacity:1;"/>
<circle cx="917.545" cy="514.895" r="22.4546" transform="rotate(90 917.545 514.895)" fill="#765325" style="fill:#765325;fill:color(display-p3 0.4627 0.3255 0.1451);fill-opacity:1;"/>
<circle cx="907.451" cy="605.764" r="22.4546" transform="rotate(102.857 907.451 605.764)" fill="#765325" style="fill:#765325;fill:color(display-p3 0.4627 0.3255 0.1451);fill-opacity:1;"/>
<circle cx="877.452" cy="692.077" r="22.4546" transform="rotate(115.714 877.452 692.077)" fill="#765325" style="fill:#765325;fill:color(display-p3 0.4627 0.3255 0.1451);fill-opacity:1;"/>
<circle cx="829.127" cy="769.506" r="22.4546" transform="rotate(128.571 829.127 769.506)" fill="#765325" style="fill:#765325;fill:color(display-p3 0.4627 0.3255 0.1451);fill-opacity:1;"/>
<circle cx="767.197" cy="834.274" r="22.4546" transform="rotate(141.429 767.197 834.274)" fill="#765325" style="fill:#765325;fill:color(display-p3 0.4627 0.3255 0.1451);fill-opacity:1;"/>
<circle cx="336.109" cy="146.86" r="22.4546" transform="rotate(-25.7143 336.109 146.86)" fill="#973E24" style="fill:#973E24;fill:color(display-p3 0.5922 0.2431 0.1412);fill-opacity:1;"/>
<circle cx="421.741" cy="116.769" r="22.4546" transform="rotate(-12.8571 421.741 116.769)" fill="#973E24" style="fill:#973E24;fill:color(display-p3 0.5922 0.2431 0.1412);fill-opacity:1;"/>
<circle cx="512" cy="106.455" r="22.4546" fill="#973E24" style="fill:#973E24;fill:color(display-p3 0.5922 0.2431 0.1412);fill-opacity:1;"/>
<circle cx="602.259" cy="116.769" r="22.4546" transform="rotate(12.8571 602.259 116.769)" fill="#973E24" style="fill:#973E24;fill:color(display-p3 0.5922 0.2431 0.1412);fill-opacity:1;"/>
<circle cx="687.891" cy="147.072" r="22.4546" transform="rotate(25.7143 687.891 147.072)" fill="#973E24" style="fill:#973E24;fill:color(display-p3 0.5922 0.2431 0.1412);fill-opacity:1;"/>
</svg>
